ffmpeg version git-2026-04-19-de18feb Copyright (c) 2000-2026 the FFmpeg developers
  built with gcc 9 (Ubuntu 9.4.0-1ubuntu1~20.04.2)
  configuration: --enable-shared --enable-gpl --enable-libx264
  libavutil      60. 30.100 / 60. 30.100
  libavcodec     62. 30.100 / 62. 30.100
  libavformat    62. 13.102 / 62. 13.102
  libavdevice    62.  4.100 / 62.  4.100
  libavfilter    11. 15.101 / 11. 15.101
  libswscale      9.  7.100 /  9.  7.100
  libswresample   6.  4.100 /  6.  4.100
[in#0/x11grab @ 0x5579465ccc40] Stream #0: not enough frames to estimate rate; consider increasing probesize
Input #0, x11grab, from ':0.0+0,0':
  Duration: N/A, start: 1777447146.328757, bitrate: 3678192 kb/s
  Stream #0:0: Video: rawvideo (BGR[0] / 0x524742), bgr0, 2870x1602, 3678192 kb/s, 25 fps, 1000k tbr, 1000k tbn, start 1777447146.328757
Stream mapping:
  Stream #0:0 -> #0:0 (rawvideo (native) -> h264 (libx264))
[libx264 @ 0x5579465daf00] using cpu capabilities: MMX2 SSE2Fast SSSE3 SSE4.2 AVX FMA3 BMI2 AVX2
[libx264 @ 0x5579465daf00] profile High, level 5.0
[libx264 @ 0x5579465daf00] 264 - core 155 r2917 0a84d98 - H.264/MPEG-4 AVC codec - Copyleft 2003-2018 - http://www.videolan.org/x264.html - options: cabac=1 ref=1 deblock=1:0:0 analyse=0x3:0x113 me=hex subme=2 psy=1 psy_rd=1.00:0.00 mixed_ref=0 me_range=16 chroma_me=1 trellis=0 8x8dct=1 cqm=0 deadzone=21,11 fast_pskip=1 chroma_qp_offset=0 threads=6 lookahead_threads=2 sliced_threads=0 nr=0 decimate=1 interlaced=0 bluray_compat=0 constrained_intra=0 bframes=3 b_pyramid=2 b_adapt=1 b_bias=0 direct=1 weightb=1 open_gop=0 weightp=1 keyint=250 keyint_min=25 scenecut=40 intra_refresh=0 rc_lookahead=10 rc=crf mbtree=1 crf=23.0 qcomp=0.60 qpmin=0 qpmax=69 qpstep=4 ip_ratio=1.40 aq=1:1.00
Output #0, matroska, to '/home/lmy/catkin_ws/recordings_tmp/exp_turncmp5_segment_v3/screen.mkv':
  Metadata:
    encoder         : Lavf62.13.102
  Stream #0:0: Video: h264 (H264 / 0x34363248), yuv420p(tv, progressive), 2870x1602, q=2-31, 25 fps, 1k tbn
    Metadata:
      encoder         : Lavc62.30.100 libx264
    Side data:
      CPB properties: bitrate max/min/avg: 0/0/0 buffer size: 0 vbv_delay: N/A
frame=    0 fps=0.0 q=0.0 size=       0KiB time=N/A bitrate=N/A speed=N/A elapsed=0:00:00.50    frame=    5 fps=5.0 q=28.0 size=       1KiB time=00:00:00.12 bitrate=  39.6kbits/s speed=0.12x elapsed=0:00:01.00    frame=   18 fps= 12 q=28.0 size=       1KiB time=00:00:00.64 bitrate=   7.4kbits/s speed=0.426x elapsed=0:00:01.50    frame=   31 fps= 15 q=28.0 size=       1KiB time=00:00:01.16 bitrate=   4.1kbits/s speed=0.58x elapsed=0:00:02.00    frame=   43 fps= 17 q=28.0 size=       1KiB time=00:00:01.64 bitrate=   2.9kbits/s speed=0.655x elapsed=0:00:02.50    frame=   56 fps= 19 q=28.0 size=       1KiB time=00:00:02.16 bitrate=   2.2kbits/s speed=0.719x elapsed=0:00:03.00    frame=   68 fps= 19 q=28.0 size=       1KiB time=00:00:02.64 bitrate=   1.8kbits/s speed=0.753x elapsed=0:00:03.50    frame=   81 fps= 20 q=28.0 size=       1KiB time=00:00:03.16 bitrate=   1.5kbits/s speed=0.789x elapsed=0:00:04.00    frame=   93 fps= 21 q=28.0 size=       1KiB time=00:00:03.64 bitrate=   1.3kbits/s speed=0.807x elapsed=0:00:04.50    frame=  106 fps= 21 q=28.0 size=       1KiB time=00:00:04.16 bitrate=   1.1kbits/s speed=0.831x elapsed=0:00:05.00    frame=  119 fps= 22 q=28.0 size=       1KiB time=00:00:04.68 bitrate=   1.0kbits/s speed=0.849x elapsed=0:00:05.50    frame=  131 fps= 22 q=28.0 size=     148KiB time=00:00:05.16 bitrate= 235.7kbits/s speed=0.859x elapsed=0:00:06.00    frame=  144 fps= 22 q=28.0 size=     148KiB time=00:00:05.68 bitrate= 214.2kbits/s speed=0.873x elapsed=0:00:06.50    frame=  156 fps= 22 q=28.0 size=     148KiB time=00:00:06.16 bitrate= 197.5kbits/s speed=0.879x elapsed=0:00:07.00    frame=  169 fps= 23 q=28.0 size=     148KiB time=00:00:06.68 bitrate= 182.1kbits/s speed=0.889x elapsed=0:00:07.51    frame=  181 fps= 23 q=28.0 size=     148KiB time=00:00:07.16 bitrate= 169.9kbits/s speed=0.893x elapsed=0:00:08.01    frame=  194 fps= 23 q=28.0 size=     148KiB time=00:00:07.68 bitrate= 158.4kbits/s speed=0.902x elapsed=0:00:08.51    frame=  206 fps= 23 q=28.0 size=     148KiB time=00:00:08.16 bitrate= 149.1kbits/s speed=0.905x elapsed=0:00:09.01    frame=  219 fps= 23 q=28.0 size=     148KiB time=00:00:08.68 bitrate= 140.1kbits/s speed=0.912x elapsed=0:00:09.51    frame=  231 fps= 23 q=28.0 size=     148KiB time=00:00:09.16 bitrate= 132.8kbits/s speed=0.914x elapsed=0:00:10.01    frame=  244 fps= 23 q=28.0 size=     148KiB time=00:00:09.68 bitrate= 125.7kbits/s speed=0.92x elapsed=0:00:10.51    frame=  256 fps= 23 q=28.0 size=     256KiB time=00:00:10.16 bitrate= 206.4kbits/s speed=0.922x elapsed=0:00:11.01    frame=  269 fps= 23 q=28.0 size=     256KiB time=00:00:10.68 bitrate= 196.4kbits/s speed=0.927x elapsed=0:00:11.51    frame=  281 fps= 23 q=28.0 size=     256KiB time=00:00:11.16 bitrate= 187.9kbits/s speed=0.929x elapsed=0:00:12.01    frame=  294 fps= 23 q=28.0 size=     256KiB time=00:00:11.68 bitrate= 179.6kbits/s speed=0.933x elapsed=0:00:12.51    frame=  306 fps= 24 q=28.0 size=     256KiB time=00:00:12.16 bitrate= 172.5kbits/s speed=0.934x elapsed=0:00:13.02    frame=  319 fps= 24 q=28.0 size=     256KiB time=00:00:12.68 bitrate= 165.4kbits/s speed=0.938x elapsed=0:00:13.52    frame=  331 fps= 24 q=28.0 size=     256KiB time=00:00:13.16 bitrate= 159.4kbits/s speed=0.938x elapsed=0:00:14.02    frame=  344 fps= 24 q=28.0 size=     256KiB time=00:00:13.68 bitrate= 153.3kbits/s speed=0.942x elapsed=0:00:14.52    frame=  356 fps= 24 q=28.0 size=     256KiB time=00:00:14.16 bitrate= 148.1kbits/s speed=0.942x elapsed=0:00:15.02    frame=  369 fps= 24 q=28.0 size=     256KiB time=00:00:14.68 bitrate= 142.9kbits/s speed=0.946x elapsed=0:00:15.52    frame=  381 fps= 24 q=28.0 size=     512KiB time=00:00:15.16 bitrate= 276.7kbits/s speed=0.946x elapsed=0:00:16.02    frame=  394 fps= 24 q=28.0 size=     512KiB time=00:00:15.68 bitrate= 267.5kbits/s speed=0.949x elapsed=0:00:16.52    frame=  406 fps= 24 q=28.0 size=     512KiB time=00:00:16.16 bitrate= 259.5kbits/s speed=0.949x elapsed=0:00:17.02    frame=  419 fps= 24 q=28.0 size=     512KiB time=00:00:16.68 bitrate= 251.5kbits/s speed=0.952x elapsed=0:00:17.52    frame=  431 fps= 24 q=28.0 size=     512KiB time=00:00:17.16 bitrate= 244.4kbits/s speed=0.952x elapsed=0:00:18.02    frame=  444 fps= 24 q=28.0 size=     512KiB time=00:00:17.68 bitrate= 237.2kbits/s speed=0.954x elapsed=0:00:18.52    frame=  457 fps= 24 q=28.0 size=     512KiB time=00:00:18.20 bitrate= 230.5kbits/s speed=0.956x elapsed=0:00:19.03    frame=  469 fps= 24 q=28.0 size=     512KiB time=00:00:18.68 bitrate= 224.5kbits/s speed=0.956x elapsed=0:00:19.53    frame=  482 fps= 24 q=28.0 size=     512KiB time=00:00:19.20 bitrate= 218.5kbits/s speed=0.958x elapsed=0:00:20.03    frame=  494 fps= 24 q=28.0 size=     512KiB time=00:00:19.68 bitrate= 213.1kbits/s speed=0.958x elapsed=0:00:20.53    frame=  506 fps= 24 q=28.0 size=     512KiB time=00:00:20.16 bitrate= 208.1kbits/s speed=0.958x elapsed=0:00:21.03    frame=  519 fps= 24 q=28.0 size=     512KiB time=00:00:20.68 bitrate= 202.8kbits/s speed=0.96x elapsed=0:00:21.53    frame=  532 fps= 24 q=28.0 size=     512KiB time=00:00:21.20 bitrate= 197.8kbits/s speed=0.962x elapsed=0:00:22.03    frame=  543 fps= 24 q=28.0 size=     512KiB time=00:00:21.64 bitrate= 193.8kbits/s speed=0.96x elapsed=0:00:22.53    frame=  556 fps= 24 q=28.0 size=     512KiB time=00:00:22.16 bitrate= 189.3kbits/s speed=0.962x elapsed=0:00:23.03    frame=  569 fps= 24 q=28.0 size=     512KiB time=00:00:22.68 bitrate= 184.9kbits/s speed=0.964x elapsed=0:00:23.53    frame=  581 fps= 24 q=28.0 size=     512KiB time=00:00:23.16 bitrate= 181.1kbits/s speed=0.964x elapsed=0:00:24.03    frame=  594 fps= 24 q=28.0 size=     512KiB time=00:00:23.68 bitrate= 177.1kbits/s speed=0.965x elapsed=0:00:24.53    frame=  607 fps= 24 q=28.0 size=     512KiB time=00:00:24.20 bitrate= 173.3kbits/s speed=0.967x elapsed=0:00:25.03    frame=  619 fps= 24 q=28.0 size=     512KiB time=00:00:24.68 bitrate= 169.9kbits/s speed=0.966x elapsed=0:00:25.53    frame=  632 fps= 24 q=28.0 size=     768KiB time=00:00:25.20 bitrate= 249.7kbits/s speed=0.968x elapsed=0:00:26.03    frame=  644 fps= 24 q=28.0 size=     768KiB time=00:00:25.68 bitrate= 245.0kbits/s speed=0.968x elapsed=0:00:26.53    frame=  657 fps= 24 q=28.0 size=     768KiB time=00:00:26.20 bitrate= 240.1kbits/s speed=0.969x elapsed=0:00:27.03    frame=  669 fps= 24 q=28.0 size=     768KiB time=00:00:26.68 bitrate= 235.8kbits/s speed=0.969x elapsed=0:00:27.53    frame=  682 fps= 24 q=28.0 size=     768KiB time=00:00:27.20 bitrate= 231.3kbits/s speed=0.97x elapsed=0:00:28.03    frame=  694 fps= 24 q=28.0 size=     768KiB time=00:00:27.68 bitrate= 227.3kbits/s speed=0.97x elapsed=0:00:28.53    frame=  707 fps= 24 q=28.0 size=     768KiB time=00:00:28.20 bitrate= 223.1kbits/s speed=0.971x elapsed=0:00:29.04    frame=  719 fps= 24 q=28.0 size=     768KiB time=00:00:28.68 bitrate= 219.4kbits/s speed=0.971x elapsed=0:00:29.54    frame=  732 fps= 24 q=28.0 size=     768KiB time=00:00:29.20 bitrate= 215.5kbits/s speed=0.972x elapsed=0:00:30.04    frame=  744 fps= 24 q=28.0 size=     768KiB time=00:00:29.68 bitrate= 212.0kbits/s speed=0.972x elapsed=0:00:30.54    frame=  757 fps= 24 q=28.0 size=     768KiB time=00:00:30.20 bitrate= 208.3kbits/s speed=0.973x elapsed=0:00:31.04    frame=  769 fps= 24 q=28.0 size=     768KiB time=00:00:30.68 bitrate= 205.1kbits/s speed=0.973x elapsed=0:00:31.54    frame=  782 fps= 24 q=28.0 size=     768KiB time=00:00:31.20 bitrate= 201.6kbits/s speed=0.974x elapsed=0:00:32.04    frame=  794 fps= 24 q=28.0 size=     768KiB time=00:00:31.68 bitrate= 198.6kbits/s speed=0.974x elapsed=0:00:32.54    frame=  806 fps= 24 q=28.0 size=     768KiB time=00:00:32.16 bitrate= 195.6kbits/s speed=0.973x elapsed=0:00:33.04    frame=  819 fps= 24 q=28.0 size=     768KiB time=00:00:32.68 bitrate= 192.5kbits/s speed=0.974x elapsed=0:00:33.54    frame=  831 fps= 24 q=28.0 size=     768KiB time=00:00:33.16 bitrate= 189.7kbits/s speed=0.974x elapsed=0:00:34.04    frame=  844 fps= 24 q=28.0 size=     768KiB time=00:00:33.68 bitrate= 186.8kbits/s speed=0.975x elapsed=0:00:34.54    frame=  857 fps= 24 q=28.0 size=     768KiB time=00:00:34.20 bitrate= 184.0kbits/s speed=0.976x elapsed=0:00:35.04    frame=  869 fps= 24 q=28.0 size=     768KiB time=00:00:34.68 bitrate= 181.4kbits/s speed=0.976x elapsed=0:00:35.54    frame=  882 fps= 24 q=28.0 size=    1024KiB time=00:00:35.20 bitrate= 238.3kbits/s speed=0.977x elapsed=0:00:36.04    frame=  894 fps= 24 q=28.0 size=    1024KiB time=00:00:35.68 bitrate= 235.1kbits/s speed=0.976x elapsed=0:00:36.54    frame=  907 fps= 24 q=28.0 size=    1024KiB time=00:00:36.20 bitrate= 231.7kbits/s speed=0.977x elapsed=0:00:37.04    frame=  919 fps= 24 q=28.0 size=    1024KiB time=00:00:36.68 bitrate= 228.7kbits/s speed=0.977x elapsed=0:00:37.54    [out#0/matroska @ 0x5579465d9500] video:1239KiB audio:0KiB subtitle:0KiB other streams:0KiB global headers:0KiB muxing overhead: 0.589570%
frame=  952 fps= 25 q=-1.0 Lsize=    1247KiB time=00:00:38.00 bitrate= 268.8kbits/s speed=0.996x elapsed=0:00:38.16    
[libx264 @ 0x5579465daf00] frame I:4     Avg QP:11.75  size:109447
[libx264 @ 0x5579465daf00] frame P:240   Avg QP:16.55  size:  2195
[libx264 @ 0x5579465daf00] frame B:708   Avg QP:20.65  size:   429
[libx264 @ 0x5579465daf00] consecutive B-frames:  0.7%  0.2%  0.3% 98.7%
[libx264 @ 0x5579465daf00] mb I  I16..4: 89.3%  2.3%  8.4%
[libx264 @ 0x5579465daf00] mb P  I16..4:  0.3%  0.1%  0.0%  P16..4:  0.3%  0.2%  0.1%  0.0%  0.0%    skip:99.0%
[libx264 @ 0x5579465daf00] mb B  I16..4:  0.0%  0.0%  0.0%  B16..8:  0.2%  0.1%  0.0%  direct: 0.0%  skip:99.6%  L0:44.6% L1:47.9% BI: 7.4%
[libx264 @ 0x5579465daf00] 8x8 transform intra:4.8% inter:2.2%
[libx264 @ 0x5579465daf00] coded y,uvDC,uvAC intra: 13.2% 19.5% 15.3% inter: 0.1% 0.1% 0.0%
[libx264 @ 0x5579465daf00] i16 v,h,dc,p: 73% 25%  2%  0%
[libx264 @ 0x5579465daf00] i8 v,h,dc,ddl,ddr,vr,hd,vl,hu: 12% 13% 67%  1%  3%  3%  1%  0%  1%
[libx264 @ 0x5579465daf00] i4 v,h,dc,ddl,ddr,vr,hd,vl,hu: 27% 27% 25%  3%  3%  4%  3%  6%  3%
[libx264 @ 0x5579465daf00] i8c dc,h,v,p: 63% 27%  9%  1%
[libx264 @ 0x5579465daf00] Weighted P-Frames: Y:0.0% UV:0.0%
[libx264 @ 0x5579465daf00] kb/s:266.50
Exiting normally, received signal 2.
